# xmcd
#
# Track frame offsets:
#	150
#	19288
#	38346
#	56068
#	71591
#	86934
#	105806
#	124127
#	138505
#	158584
#	177680
#	195361
#	213684
#	237220
#	255628
#	275295
#	291574
#
# Disc length: 4129 seconds
#
# Revision: 3
# Processed by: cddbd v1.5.2PL0 Copyright (c) Steve Scherf et al.
# Submitted via: EasyCDDAExtractor 15.3.0.1
#
DISCID=f9101f11
DTITLE=Maria Conchita Alonso - La Mas Completa Coleccion - CD 2
DYEAR=2005
DGENRE=Latin
TTITLE0=Acariciame
TTITLE1=Muy Dentro
TTITLE2=Todo Lo Que Yo Pretendo
TTITLE3=A El Lo Quiero
TTITLE4=Tomame O Dejame
TTITLE5=Soy Tu Mujer
TTITLE6=Acercate Mas
TTITLE7=Sueltame
TTITLE8=Otra Mentira Mas
TTITLE9=Si Faltas, Me Matas
TTITLE10=O Ella O Yo
TTITLE11=Me Vuelve Loca Tu Amor
TTITLE12=Amigos No
TTITLE13=Entre La Espada Y La Pared
TTITLE14=Ese Mañana
TTITLE15=Tu, Mi Hombre
TTITLE16=Te Amo, Te Amo
EXTD=
EXTT0=
EXTT1=
EXTT2=
EXTT3=
EXTT4=
EXTT5=
EXTT6=
EXTT7=
EXTT8=
EXTT9=
EXTT10=
EXTT11=
EXTT12=
EXTT13=
EXTT14=
EXTT15=
EXTT16=
PLAYORDER=
